<?xml version="1.0" encoding="utf-8"?>
<!-- Generator: Adobe Illustrator 15.0.0, SVG Export Plug-In . SVG Version: 6.00 Build 0)  -->
<!DOCTYPE svg PUBLIC "-//W3C//DTD SVG 1.1//EN" "http://www.w3.org/Graphics/SVG/1.1/DTD/svg11.dtd">
<svg version="1.1" xmlns="http://www.w3.org/2000/svg" xmlns:xlink="http://www.w3.org/1999/xlink" x="0px" y="0px" width="256px"
	 height="256px" viewBox="0 0 256 256" enable-background="new 0 0 256 256" xml:space="preserve">
<g id="btn-close">
	<linearGradient id="SVGID_5_" gradientUnits="userSpaceOnUse" x1="37.5005" y1="37.5005" x2="319.7904" y2="319.7904">
		<stop  offset="0" style="stop-color:#58595B"/>
		<stop  offset="1" style="stop-color:#000000"/>
	</linearGradient>
	<circle opacity="0.4" fill="url(#SVGID_5_)" cx="128" cy="128" r="119.46"/>
	<linearGradient id="SVGID_6_" gradientUnits="userSpaceOnUse" x1="127.9995" y1="63.8408" x2="127.9995" y2="435.7104">
		<stop  offset="0" style="stop-color:#FFFFFF"/>
		<stop  offset="1" style="stop-color:#8B8B8B"/>
	</linearGradient>
	<path fill="url(#SVGID_6_)" d="M134.479,127.999l52.695-52.694c1.799-1.798,1.801-4.715,0-6.516c-1.799-1.799-4.715-1.799-6.516,0
		L128,121.448L75.341,68.789c-1.8-1.799-4.717-1.799-6.515,0c-1.801,1.8-1.801,4.717,0,6.516l52.693,52.694l-52.693,52.695
		c-1.801,1.799-1.801,4.717,0,6.516c1.799,1.801,4.716,1.801,6.515,0L128,134.552l52.659,52.658c1.799,1.801,4.717,1.801,6.516,0
		c1.799-1.799,1.799-4.717,0-6.516L134.479,127.999z"/>
</g>
</svg>
