<?xml version="1.0" encoding="utf-8"?>
<!-- Generator: Adobe Illustrator 15.0.0, SVG Export Plug-In . SVG Version: 6.00 Build 0)  -->
<!DOCTYPE svg PUBLIC "-//W3C//DTD SVG 1.1//EN" "http://www.w3.org/Graphics/SVG/1.1/DTD/svg11.dtd">
<svg version="1.1" id="btn-close_1_" xmlns="http://www.w3.org/2000/svg" xmlns:xlink="http://www.w3.org/1999/xlink" x="0px"
	 y="0px" width="256px" height="256px" viewBox="0 0 256 256" enable-background="new 0 0 256 256" xml:space="preserve">
<g id="btn-close">
	<path d="M134.479,127.999l82.695-82.694c1.799-1.798,1.801-4.715,0-6.516c-1.799-1.799-4.715-1.799-6.516,0L128,121.448
		L45.341,38.789c-1.8-1.799-4.717-1.799-6.515,0c-1.801,1.8-1.801,4.717,0,6.516l82.693,82.694l-82.693,82.694
		c-1.801,1.8-1.801,4.718,0,6.517c1.799,1.802,4.716,1.802,6.515,0L128,134.553l82.659,82.657c1.799,1.802,4.717,1.802,6.516,0
		c1.8-1.799,1.8-4.717,0-6.517L134.479,127.999z"/>
</g>
</svg>
