<?xml version="1.0" encoding="utf-8"?>
<!-- Generator: Adobe Illustrator 15.0.0, SVG Export Plug-In . SVG Version: 6.00 Build 0)  -->
<!DOCTYPE svg PUBLIC "-//W3C//DTD SVG 1.1//EN" "http://www.w3.org/Graphics/SVG/1.1/DTD/svg11.dtd">
<svg version="1.1" xmlns="http://www.w3.org/2000/svg" xmlns:xlink="http://www.w3.org/1999/xlink" x="0px" y="0px" width="256px"
	 height="256px" viewBox="0 0 256 256" enable-background="new 0 0 256 256" xml:space="preserve">
<g id="eye">
</g>
<g id="Layer_2">
</g>
<g id="Layer_3">
</g>
<g id="btn-close">
	<linearGradient id="SVGID_1_" gradientUnits="userSpaceOnUse" x1="37.5005" y1="37.5005" x2="319.7906" y2="319.7906">
		<stop  offset="0" style="stop-color:#E6E7E8"/>
		<stop  offset="0.2236" style="stop-color:#DDDFE0"/>
		<stop  offset="0.5967" style="stop-color:#D4D6D7"/>
		<stop  offset="1" style="stop-color:#D1D3D4"/>
	</linearGradient>
	<circle fill="url(#SVGID_1_)" cx="128" cy="127.999" r="119.46"/>
	<linearGradient id="SVGID_2_" gradientUnits="userSpaceOnUse" x1="43.1821" y1="43.1821" x2="307.7481" y2="307.7481">
		<stop  offset="0" style="stop-color:#58595B"/>
		<stop  offset="0.1779" style="stop-color:#48484A"/>
		<stop  offset="0.4386" style="stop-color:#2D2D2E"/>
		<stop  offset="0.7086" style="stop-color:#0F0F10"/>
		<stop  offset="1" style="stop-color:#000000"/>
	</linearGradient>
	<circle fill="url(#SVGID_2_)" cx="128" cy="127.999" r="111.96"/>
	<linearGradient id="SVGID_3_" gradientUnits="userSpaceOnUse" x1="127.9995" y1="52.4775" x2="127.9995" y2="490.2042">
		<stop  offset="0" style="stop-color:#FFFFFF"/>
		<stop  offset="1" style="stop-color:#8B8B8B"/>
	</linearGradient>
	<path fill="url(#SVGID_3_)" d="M135.627,127.998l62.025-62.025c2.118-2.118,2.12-5.55,0-7.67c-2.117-2.118-5.549-2.118-7.669,0
		L128,120.288L66.015,58.303c-2.117-2.118-5.552-2.118-7.667,0c-2.12,2.12-2.12,5.552,0,7.67l62.025,62.025l-62.025,62.027
		c-2.12,2.118-2.12,5.553,0,7.67c2.117,2.12,5.55,2.12,7.667,0L128,135.712l61.983,61.983c2.117,2.12,5.552,2.12,7.669,0
		c2.118-2.117,2.118-5.552,0-7.67L135.627,127.998z"/>
</g>
<g id="btn-arrow-right">
</g>
<g id="btn-arrow-left">
</g>
<g id="menu">
</g>
</svg>
