<?xml version="1.0" encoding="utf-8"?>
<!-- Generator: Adobe Illustrator 15.0.0, SVG Export Plug-In . SVG Version: 6.00 Build 0)  -->
<!DOCTYPE svg PUBLIC "-//W3C//DTD SVG 1.1//EN" "http://www.w3.org/Graphics/SVG/1.1/DTD/svg11.dtd">
<svg version="1.1" id="menu" xmlns="http://www.w3.org/2000/svg" xmlns:xlink="http://www.w3.org/1999/xlink" x="0px" y="0px"
	 width="256px" height="256px" viewBox="0 0 256 256" enable-background="new 0 0 256 256" xml:space="preserve">
<path d="M36.922,214.594h6.752l0.975,37.257h-6.026l-0.628-31.057h-0.111l-6.421,18.712l-6.315-18.712h-0.112l-0.823,31.057h-5.971
	l1.26-37.257h6.696l5.316,15.808L36.922,214.594z"/>
<path d="M88.544,214.594h20.214l-0.026,3.352H94.321l-0.056,12.288h11.897l0.031,3.353H94.296l-0.067,14.913h14.411l-0.025,3.352
	H88.402L88.544,214.594z"/>
<path d="M153.846,214.594h6.75l10.966,31.336l0.088-0.112l-0.121-8.322l0.073-22.901h5.802l-0.143,37.257h-6.753l-10.974-31.392
	l-0.091,0.111l0.144,8.435l-0.082,22.846h-5.803L153.846,214.594z"/>
<path d="M242.815,214.594h-3.698h-1.044l-0.09,27.09c-0.021,3.632-0.85,7.149-5.484,7.149c-4.637,0-5.307-3.462-5.296-7.149
	l0.09-27.09h-1.24h-2.502h-2.24l0.136,28.207c0.014,5.765,4.589,9.489,10.047,9.547l-1-0.039c0.329,0.028,1.667,0.044,2.013,0.044
	c0.401,0,1.79-0.025,2.171-0.064l-1,0.06c5.458-0.058,10.033-3.782,10.047-9.547l0.136-28.207H242.815z"/>
<polygon points="15.839,154.58 15.839,178.041 114.509,178.041 116.926,154.58 "/>
<polygon points="15.839,98.309 15.839,121.771 245.306,121.771 247.724,98.309 "/>
<polygon points="15.839,42.037 15.839,65.499 195.116,65.499 197.533,42.037 "/>
</svg>
