<?xml version="1.0" encoding="utf-8"?>
<!-- Generator: Adobe Illustrator 15.0.0, SVG Export Plug-In . SVG Version: 6.00 Build 0)  -->
<!DOCTYPE svg PUBLIC "-//W3C//DTD SVG 1.1//EN" "http://www.w3.org/Graphics/SVG/1.1/DTD/svg11.dtd">
<svg version="1.1" xmlns="http://www.w3.org/2000/svg" xmlns:xlink="http://www.w3.org/1999/xlink" x="0px" y="0px" width="256px"
	 height="256px" viewBox="0 0 256 256" enable-background="new 0 0 256 256" xml:space="preserve">
<g id="image">
	<g>
		<g>
			<path fill="#FFFFFF" d="M237.051,201.511c0,4.026-3.264,7.29-7.29,7.29H26.239c-4.026,0-7.291-3.264-7.291-7.29V54.489
				c0-4.026,3.265-7.291,7.291-7.291h203.521c4.026,0,7.29,3.265,7.29,7.291V201.511z"/>
			<path fill="#D1D3D4" d="M229.761,212.75H26.239c-6.197,0-11.239-5.042-11.239-11.239V54.489c0-6.197,5.042-11.239,11.239-11.239
				h203.521c6.197,0,11.239,5.042,11.239,11.239v147.021C241,207.708,235.958,212.75,229.761,212.75z M26.239,51.148
				c-1.842,0-3.341,1.499-3.341,3.341v147.021c0,1.842,1.499,3.342,3.341,3.342h203.521c1.842,0,3.342-1.5,3.342-3.342V54.489
				c0-1.842-1.5-3.341-3.342-3.341H26.239z"/>
		</g>
		<g>
			<g>
				<path fill="#D1D3D4" d="M26.239,208.801h203.521c4.026,0,7.29-3.264,7.29-7.29V183.04l-69.235-54.425l-26.272,21.062
					L91.245,90.941l-72.296,89.306v21.264C18.949,205.537,22.213,208.801,26.239,208.801z"/>
			</g>
		</g>
		<g>
			<circle fill="#D1D3D4" cx="174.78" cy="86.992" r="19.745"/>
		</g>
	</g>
</g>
</svg>
