<?xml version="1.0" encoding="utf-8"?>
<!-- Generator: Adobe Illustrator 15.0.0, SVG Export Plug-In . SVG Version: 6.00 Build 0)  -->
<!DOCTYPE svg PUBLIC "-//W3C//DTD SVG 1.1//EN" "http://www.w3.org/Graphics/SVG/1.1/DTD/svg11.dtd">
<svg version="1.1" xmlns="http://www.w3.org/2000/svg" xmlns:xlink="http://www.w3.org/1999/xlink" x="0px" y="0px" width="256px"
	 height="256px" viewBox="0 0 256 256" enable-background="new 0 0 256 256" xml:space="preserve">
<g id="images">
	<g>
		<g>
			<g>
				<path fill="#FFFFFF" d="M214.746,164.464c0.373,3.423-2.1,6.502-5.523,6.875L36.164,190.208c-3.424,0.373-6.502-2.1-6.875-5.523
					L15.658,59.669c-0.373-3.424,2.1-6.502,5.523-6.876l173.06-18.868c3.423-0.373,6.501,2.1,6.874,5.522L214.746,164.464z"/>
				<path fill="#D1D3D4" d="M209.589,174.697L36.53,193.565c-5.27,0.574-10.025-3.245-10.599-8.515L12.3,60.034
					c-0.575-5.27,3.245-10.023,8.515-10.6l173.06-18.868c5.271-0.574,10.025,3.245,10.6,8.515l13.631,125.017
					C218.679,169.367,214.859,174.122,209.589,174.697z M21.547,56.151c-1.566,0.17-2.702,1.584-2.531,3.15l13.63,125.017
					c0.171,1.566,1.585,2.702,3.151,2.531l173.06-18.868c1.565-0.171,2.702-1.585,2.531-3.151L197.758,39.813
					c-0.171-1.566-1.585-2.702-3.151-2.531L21.547,56.151z"/>
			</g>
			<g>
				<g>
					<path fill="#D1D3D4" d="M36.164,190.208l173.059-18.869c3.424-0.373,5.896-3.452,5.523-6.875l-1.712-15.706l-63.919-39.86
						l-20.387,20.346L80.512,83.962l-53.195,82.642l1.972,18.081C29.662,188.108,32.74,190.581,36.164,190.208z"/>
				</g>
			</g>
			<g>
				<circle fill="#D1D3D4" cx="151.178" cy="72.859" r="16.889"/>
			</g>
		</g>
		<g>
			<g>
				<path fill="#FFFFFF" d="M228.227,216.477c-0.332,3.428-3.381,5.938-6.809,5.606L48.144,205.298
					c-3.428-0.332-5.938-3.38-5.606-6.808L54.663,73.319c0.332-3.428,3.381-5.938,6.808-5.605l173.275,16.784
					c3.427,0.331,5.938,3.38,5.605,6.808L228.227,216.477z"/>
				<path fill="#D1D3D4" d="M221.093,225.445L47.819,208.66c-5.277-0.512-9.154-5.219-8.642-10.496L51.301,72.993
					c0.511-5.277,5.22-9.153,10.495-8.643l173.275,16.785c5.276,0.512,9.153,5.219,8.642,10.496l-12.125,125.171
					C231.077,222.079,226.369,225.956,221.093,225.445z M61.146,71.075c-1.567-0.152-2.969,1.001-3.12,2.569L45.9,198.815
					c-0.152,1.568,1,2.968,2.569,3.121l173.274,16.784c1.568,0.152,2.969-1.001,3.12-2.569L236.989,90.98
					c0.151-1.569-1.001-2.969-2.569-3.121L61.146,71.075z"/>
			</g>
			<g>
				<g>
					<path fill="#D1D3D4" d="M48.144,205.298l173.274,16.785c3.428,0.331,6.477-2.179,6.809-5.606l1.522-15.726l-54.457-52.046
						l-24.104,15.766l-37.979-54.155l-68.917,70.071l-1.754,18.104C42.206,201.918,44.716,204.966,48.144,205.298z"/>
				</g>
			</g>
			<g>
				<circle fill="#D1D3D4" cx="184.654" cy="113.842" r="16.889"/>
			</g>
		</g>
	</g>
</g>
</svg>
