<?xml version="1.0" encoding="utf-8"?>
<!-- Generator: Adobe Illustrator 15.0.0, SVG Export Plug-In . SVG Version: 6.00 Build 0)  -->
<!DOCTYPE svg PUBLIC "-//W3C//DTD SVG 1.1//EN" "http://www.w3.org/Graphics/SVG/1.1/DTD/svg11.dtd">
<svg version="1.1" xmlns="http://www.w3.org/2000/svg" xmlns:xlink="http://www.w3.org/1999/xlink" x="0px" y="0px"
	 width="513.878px" height="53.858px" viewBox="0 0 513.878 53.858" enable-background="new 0 0 513.878 53.858"
	 xml:space="preserve">
<g id="Layer-rodriguez">
	<path fill="none" stroke="#58595B" stroke-miterlimit="10" d="M253.647,11.95c2.284-0.559,5.735-0.863,9.135-0.863
		c3.248,0,6.598,0.457,8.983,1.979c2.233,1.319,3.806,3.502,3.806,6.648c0,5.075-3.35,8.272-7.765,9.693v0.152
		c2.03,0.914,2.944,3.146,3.248,6.242c0.457,3.857,0.711,8.323,1.32,9.744h-7.511c-0.305-0.913-0.66-3.856-0.964-8.069
		c-0.355-4.161-1.776-5.43-4.669-5.43h-2.233l-2.538,13.499h-7.207L253.647,11.95z M258.113,26.566h2.995
		c3.958,0,6.851-2.386,6.851-5.735c0-2.791-2.284-4.009-5.227-4.009c-1.371,0-2.233,0.102-2.842,0.254L258.113,26.566z"/>
	<path fill="none" stroke="#58595B" stroke-miterlimit="10" d="M310.841,25.044c0,6.242-2.182,12.332-6.09,16.139
		c-3.197,3.096-7.511,4.923-12.637,4.923c-8.881,0-13.855-6.293-13.855-14.261c0-6.192,2.284-12.333,6.293-16.189
		c3.197-3.045,7.562-4.872,12.485-4.872C306.07,10.783,310.841,16.873,310.841,25.044z M290.287,19.461
		c-2.74,2.69-4.263,8.019-4.263,12.13c0,4.821,2.183,8.425,7.156,8.425c2.182,0,4.161-0.914,5.735-2.487
		c2.689-2.689,4.161-8.323,4.161-12.281c0-4.264-1.522-8.374-6.902-8.374C293.89,16.873,291.86,17.837,290.287,19.461z"/>
	<path fill="none" stroke="#58595B" stroke-miterlimit="10" d="M318.958,11.849c2.943-0.508,6.141-0.762,9.49-0.762
		c5.329,0,9.541,1.219,12.434,3.705c2.792,2.284,4.517,5.634,4.517,10.709c0,6.647-2.791,12.332-7.003,15.732
		c-3.958,3.197-8.983,4.567-16.393,4.567c-4.111,0-7.663-0.355-9.389-0.66L318.958,11.849z M321.039,39.711
		c0.863,0.102,1.929,0.152,3.197,0.152c3.959,0,7.46-1.37,9.694-3.959c2.334-2.639,3.552-6.242,3.552-10.353
		c0-5.431-2.994-8.628-9.034-8.628c-1.269,0-2.334,0.102-3.096,0.254L321.039,39.711z"/>
	<path fill="none" stroke="#58595B" stroke-miterlimit="10" d="M353.568,11.95c2.284-0.559,5.735-0.863,9.135-0.863
		c3.248,0,6.598,0.457,8.983,1.979c2.233,1.319,3.806,3.502,3.806,6.648c0,5.075-3.35,8.272-7.765,9.693v0.152
		c2.03,0.914,2.944,3.146,3.248,6.242c0.457,3.857,0.711,8.323,1.32,9.744h-7.511c-0.305-0.913-0.66-3.856-0.964-8.069
		c-0.355-4.161-1.776-5.43-4.669-5.43h-2.233l-2.538,13.499h-7.207L353.568,11.95z M358.034,26.566h2.995
		c3.958,0,6.851-2.386,6.851-5.735c0-2.791-2.284-4.009-5.227-4.009c-1.371,0-2.233,0.102-2.842,0.254L358.034,26.566z"/>
	<path fill="none" stroke="#58595B" stroke-miterlimit="10" d="M390.309,11.341l-6.445,34.206h-7.308l6.496-34.206H390.309z
		 M396.247,3.119l-6.699,6.395h-6.191l4.771-6.395H396.247z"/>
	<path fill="none" stroke="#58595B" stroke-miterlimit="10" d="M418.83,43.974c-2.588,0.863-6.75,1.929-11.063,1.929
		c-4.669,0-8.577-1.218-11.368-3.756c-2.741-2.385-4.314-6.191-4.314-10.556c0-6.395,2.588-11.927,6.953-15.632
		c3.857-3.197,9.186-4.973,15.124-4.973c4.415,0,7.714,0.862,9.034,1.522l-2.183,6.141c-1.522-0.711-4.212-1.37-7.257-1.37
		c-3.4,0-6.395,0.964-8.678,2.74c-2.994,2.335-4.974,6.395-4.974,11.063c0,5.735,3.4,8.628,8.78,8.628
		c1.726,0,2.893-0.254,3.756-0.609l1.37-7.206h-5.329l1.167-5.837h12.434L418.83,43.974z"/>
	<path fill="none" stroke="#58595B" stroke-miterlimit="10" d="M438.417,11.341l-3.705,19.691c-0.254,1.167-0.406,2.538-0.406,4.01
		c0,2.791,1.726,4.923,4.974,4.923c3.857,0,6.344-2.538,7.562-8.882l3.756-19.742h7.309l-3.705,19.438
		c-1.979,10.354-6.496,15.327-15.834,15.327c-7.055,0.051-11.368-3.654-11.368-10.911c0-1.472,0.202-3.146,0.507-4.771l3.604-19.083
		H438.417z"/>
	<path fill="none" stroke="#58595B" stroke-miterlimit="10" d="M480.234,31.032h-12.13l-1.573,8.272h13.652l-1.168,6.242h-21.011
		l6.496-34.206h20.25l-1.218,6.242h-12.891l-1.422,7.309h12.231L480.234,31.032z"/>
	<path fill="none" stroke="#58595B" stroke-miterlimit="10" d="M482.769,41.335l19.844-23.549v-0.152h-13.905l1.269-6.293h23.7
		l-0.862,4.518l-19.488,23.243v0.152h15.326l-1.218,6.293h-25.426L482.769,41.335z"/>
</g>
<g id="Layer-soria">
	<path fill="none" stroke="#58595B" stroke-miterlimit="10" d="M112.52,37.63c2.03,1.218,4.923,2.183,8.069,2.183
		c2.842,0,5.43-1.319,5.43-3.959c0-1.979-1.472-3.197-4.618-4.872c-3.603-1.929-7.054-4.618-7.054-9.033
		c0-6.953,5.988-11.114,13.449-11.114c4.162,0,6.598,0.913,8.069,1.675l-2.284,6.09c-1.117-0.609-3.553-1.522-6.344-1.472
		c-3.451,0-5.228,1.675-5.228,3.553c0,1.979,2.081,3.248,4.974,4.872c4.162,2.131,6.801,4.923,6.801,9.033
		c0,7.612-6.293,11.521-13.906,11.521c-4.771-0.051-8.171-1.269-9.795-2.437L112.52,37.63z"/>
	<path fill="none" stroke="#58595B" stroke-miterlimit="10" d="M170.628,25.044c0,6.242-2.182,12.332-6.09,16.139
		c-3.197,3.096-7.511,4.923-12.637,4.923c-8.881,0-13.855-6.293-13.855-14.261c0-6.192,2.284-12.333,6.293-16.189
		c3.197-3.045,7.562-4.872,12.485-4.872C165.857,10.783,170.628,16.873,170.628,25.044z M150.074,19.461
		c-2.74,2.69-4.263,8.019-4.263,12.13c0,4.821,2.183,8.425,7.156,8.425c2.182,0,4.161-0.914,5.735-2.487
		c2.689-2.689,4.161-8.323,4.161-12.281c0-4.264-1.522-8.374-6.902-8.374C153.677,16.873,151.647,17.837,150.074,19.461z"/>
	<path fill="none" stroke="#58595B" stroke-miterlimit="10" d="M178.796,11.95c2.284-0.559,5.735-0.863,9.135-0.863
		c3.248,0,6.597,0.457,8.983,1.979c2.233,1.319,3.806,3.502,3.806,6.648c0,5.075-3.35,8.272-7.765,9.693v0.152
		c2.03,0.914,2.944,3.146,3.248,6.242c0.457,3.857,0.711,8.323,1.32,9.744h-7.511c-0.305-0.913-0.66-3.856-0.964-8.069
		c-0.355-4.161-1.776-5.43-4.669-5.43h-2.233l-2.538,13.499h-7.207L178.796,11.95z M183.262,26.566h2.995
		c3.958,0,6.851-2.386,6.851-5.735c0-2.791-2.284-4.009-5.227-4.009c-1.371,0-2.233,0.102-2.842,0.254L183.262,26.566z"/>
	<path fill="none" stroke="#58595B" stroke-miterlimit="10" d="M215.588,11.341l-6.496,34.206h-7.308l6.496-34.206H215.588z"/>
	<path fill="none" stroke="#58595B" stroke-miterlimit="10" d="M225.28,36.666l-4.009,8.881h-7.815l16.646-34.206h9.389
		l4.009,34.206h-7.714l-0.66-8.881H225.28z M234.821,31.083l-0.71-7.358c-0.102-1.878-0.304-4.618-0.457-6.699h-0.102
		c-0.863,2.081-1.827,4.72-2.741,6.699l-3.4,7.358H234.821z"/>
</g>
<g id="Layer-jose">
	<path fill="none" stroke="#58595B" stroke-miterlimit="10" d="M15.899,11.341h7.308l-4.314,22.584
		c-1.675,8.679-5.379,12.181-13.145,12.181c-2.131,0-4.517-0.355-5.633-0.813l1.421-6.242c1.066,0.355,2.437,0.609,4.061,0.609
		c3.197,0,5.227-1.573,6.191-6.648L15.899,11.341z"/>
	<path fill="none" stroke="#58595B" stroke-miterlimit="10" d="M57.208,25.044c0,6.242-2.182,12.332-6.09,16.139
		c-3.197,3.096-7.511,4.923-12.637,4.923c-8.881,0-13.855-6.293-13.855-14.261c0-6.192,2.284-12.333,6.293-16.189
		c3.197-3.045,7.562-4.872,12.485-4.872C52.438,10.783,57.208,16.873,57.208,25.044z M36.654,19.461
		c-2.74,2.69-4.263,8.019-4.263,12.13c0,4.821,2.183,8.425,7.156,8.425c2.182,0,4.161-0.914,5.735-2.487
		c2.689-2.689,4.161-8.323,4.161-12.281c0-4.264-1.522-8.374-6.902-8.374C40.257,16.873,38.227,17.837,36.654,19.461z"/>
	<path fill="none" stroke="#58595B" stroke-miterlimit="10" d="M60.402,37.63c2.03,1.218,4.923,2.183,8.069,2.183
		c2.842,0,5.43-1.319,5.43-3.959c0-1.979-1.472-3.197-4.618-4.872c-3.603-1.929-7.054-4.618-7.054-9.033
		c0-6.953,5.988-11.114,13.449-11.114c4.162,0,6.598,0.913,8.069,1.675l-2.284,6.09c-1.117-0.609-3.553-1.522-6.344-1.472
		c-3.451,0-5.228,1.675-5.228,3.553c0,1.979,2.081,3.248,4.974,4.872c4.162,2.131,6.801,4.923,6.801,9.033
		c0,7.612-6.293,11.521-13.906,11.521c-4.771-0.051-8.171-1.269-9.795-2.437L60.402,37.63z"/>
	<path fill="none" stroke="#58595B" stroke-miterlimit="10" d="M107.04,31.032H94.911l-1.573,8.272h13.652l-1.218,6.242h-20.96
		l6.496-34.206h20.25l-1.218,6.242H97.448l-1.421,7.309h12.231L107.04,31.032z M110.796,3.119l-6.699,6.395h-6.191l4.771-6.395
		H110.796z"/>
</g>
</svg>
