<?xml version="1.0" encoding="utf-8"?>
<!-- Generator: Adobe Illustrator 15.0.0, SVG Export Plug-In . SVG Version: 6.00 Build 0)  -->
<!DOCTYPE svg PUBLIC "-//W3C//DTD SVG 1.1//EN" "http://www.w3.org/Graphics/SVG/1.1/DTD/svg11.dtd">
<svg version="1.1" xmlns="http://www.w3.org/2000/svg" xmlns:xlink="http://www.w3.org/1999/xlink" x="0px" y="0px"
	 width="513.878px" height="53.858px" viewBox="0 0 513.878 53.858" enable-background="new 0 0 513.878 53.858"
	 xml:space="preserve">
<g id="Layer-rodriguez">
	<path fill="none" stroke="#39B54A" stroke-width="1.5" stroke-miterlimit="10" d="M253.693,12.95
		c2.276-0.559,5.715-0.863,9.104-0.863c3.236,0,6.575,0.457,8.952,1.979c2.225,1.319,3.793,3.502,3.793,6.648
		c0,5.075-3.338,8.272-7.739,9.693v0.152c2.023,0.914,2.934,3.146,3.237,6.242c0.455,3.857,0.708,8.323,1.315,9.744h-7.485
		c-0.303-0.913-0.657-3.856-0.961-8.069c-0.353-4.161-1.77-5.43-4.652-5.43h-2.225l-2.529,13.499h-7.182L253.693,12.95z
		 M258.143,27.566h2.985c3.945,0,6.827-2.386,6.827-5.735c0-2.791-2.275-4.009-5.209-4.009c-1.366,0-2.226,0.102-2.833,0.254
		L258.143,27.566z"/>
	<path fill="none" stroke="#39B54A" stroke-width="1.5" stroke-miterlimit="10" d="M310.689,26.044
		c0,6.242-2.174,12.332-6.069,16.139c-3.186,3.096-7.484,4.923-12.593,4.923c-8.851,0-13.807-6.293-13.807-14.261
		c0-6.192,2.276-12.333,6.271-16.189c3.186-3.045,7.536-4.872,12.441-4.872C305.935,11.783,310.689,17.873,310.689,26.044z
		 M290.206,20.461c-2.731,2.69-4.249,8.019-4.249,12.13c0,4.821,2.175,8.425,7.132,8.425c2.174,0,4.147-0.914,5.715-2.487
		c2.68-2.689,4.147-8.323,4.147-12.281c0-4.264-1.518-8.374-6.878-8.374C293.797,17.873,291.774,18.837,290.206,20.461z"/>
	<path fill="none" stroke="#39B54A" stroke-width="1.5" stroke-miterlimit="10" d="M318.778,12.849
		c2.933-0.508,6.12-0.762,9.457-0.762c5.311,0,9.508,1.219,12.391,3.705c2.782,2.284,4.501,5.634,4.501,10.709
		c0,6.647-2.781,12.332-6.979,15.732c-3.945,3.197-8.952,4.567-16.336,4.567c-4.097,0-7.637-0.355-9.356-0.66L318.778,12.849z
		 M320.852,40.711c0.859,0.102,1.921,0.152,3.186,0.152c3.945,0,7.435-1.37,9.66-3.959c2.327-2.639,3.54-6.242,3.54-10.353
		c0-5.431-2.983-8.628-9.002-8.628c-1.264,0-2.326,0.102-3.085,0.254L320.852,40.711z"/>
	<path fill="none" stroke="#39B54A" stroke-width="1.5" stroke-miterlimit="10" d="M353.268,12.95
		c2.276-0.559,5.715-0.863,9.104-0.863c3.237,0,6.575,0.457,8.952,1.979c2.225,1.319,3.793,3.502,3.793,6.648
		c0,5.075-3.338,8.272-7.738,9.693v0.152c2.023,0.914,2.934,3.146,3.236,6.242c0.456,3.857,0.709,8.323,1.315,9.744h-7.485
		c-0.303-0.913-0.657-3.856-0.96-8.069c-0.354-4.161-1.771-5.43-4.653-5.43h-2.225l-2.529,13.499h-7.181L353.268,12.95z
		 M357.719,27.566h2.984c3.945,0,6.828-2.386,6.828-5.735c0-2.791-2.276-4.009-5.209-4.009c-1.366,0-2.225,0.102-2.832,0.254
		L357.719,27.566z"/>
	<path fill="none" stroke="#39B54A" stroke-width="1.5" stroke-miterlimit="10" d="M389.882,12.341l-6.422,34.206h-7.284
		l6.474-34.206H389.882z M395.799,3.119l-6.676,6.395h-6.17l4.754-6.395H395.799z"/>
	<path fill="none" stroke="#39B54A" stroke-width="1.5" stroke-miterlimit="10" d="M418.304,44.974
		c-2.58,0.863-6.727,1.929-11.025,1.929c-4.654,0-8.548-1.218-11.33-3.756c-2.731-2.385-4.299-6.191-4.299-10.556
		c0-6.395,2.579-11.927,6.929-15.632c3.844-3.197,9.154-4.973,15.071-4.973c4.4,0,7.688,0.862,9.003,1.522l-2.175,6.141
		c-1.517-0.711-4.197-1.37-7.232-1.37c-3.388,0-6.372,0.964-8.648,2.74c-2.983,2.335-4.957,6.395-4.957,11.063
		c0,5.735,3.389,8.628,8.75,8.628c1.72,0,2.883-0.254,3.743-0.609l1.365-7.206h-5.31l1.163-5.837h12.391L418.304,44.974z"/>
	<path fill="none" stroke="#39B54A" stroke-width="1.5" stroke-miterlimit="10" d="M437.824,12.341l-3.692,19.691
		c-0.252,1.167-0.404,2.538-0.404,4.01c0,2.791,1.72,4.923,4.956,4.923c3.846,0,6.322-2.538,7.536-8.882l3.742-19.742h7.282
		l-3.69,19.438c-1.974,10.354-6.475,15.327-15.78,15.327c-7.03,0.051-11.329-3.654-11.329-10.911c0-1.472,0.201-3.146,0.506-4.771
		l3.592-19.083H437.824z"/>
	<path fill="none" stroke="#39B54A" stroke-width="1.5" stroke-miterlimit="10" d="M479.496,32.032h-12.087l-1.568,8.272h13.604
		l-1.162,6.242h-20.939l6.473-34.206h20.181l-1.213,6.242h-12.846l-1.418,7.309h12.188L479.496,32.032z"/>
	<path fill="none" stroke="#39B54A" stroke-width="1.5" stroke-miterlimit="10" d="M482.022,42.335l19.775-23.549v-0.152H487.94
		l1.264-6.293h23.618l-0.859,4.518l-19.42,23.243v0.152h15.272l-1.214,6.293h-25.336L482.022,42.335z"/>
</g>
<g id="Layer-soria">
	<path fill="none" stroke="#EC008C" stroke-width="1.5" stroke-miterlimit="10" d="M113.054,38.63
		c2.023,1.218,4.906,2.183,8.042,2.183c2.833,0,5.411-1.319,5.411-3.959c0-1.979-1.466-3.197-4.602-4.872
		c-3.591-1.929-7.03-4.618-7.03-9.033c0-6.953,5.968-11.114,13.402-11.114c4.147,0,6.575,0.913,8.042,1.675l-2.276,6.09
		c-1.112-0.609-3.54-1.522-6.321-1.472c-3.44,0-5.209,1.675-5.209,3.553c0,1.979,2.074,3.248,4.957,4.872
		c4.147,2.131,6.777,4.923,6.777,9.033c0,7.612-6.271,11.521-13.858,11.521c-4.753-0.051-8.142-1.269-9.761-2.437L113.054,38.63z"/>
	<path fill="none" stroke="#EC008C" stroke-width="1.5" stroke-miterlimit="10" d="M170.962,26.044
		c0,6.242-2.175,12.332-6.069,16.139c-3.187,3.096-7.485,4.923-12.593,4.923c-8.85,0-13.807-6.293-13.807-14.261
		c0-6.192,2.276-12.333,6.271-16.189c3.186-3.045,7.536-4.872,12.442-4.872C166.208,11.783,170.962,17.873,170.962,26.044z
		 M150.478,20.461c-2.731,2.69-4.248,8.019-4.248,12.13c0,4.821,2.175,8.425,7.131,8.425c2.175,0,4.147-0.914,5.715-2.487
		c2.68-2.689,4.146-8.323,4.146-12.281c0-4.264-1.518-8.374-6.878-8.374C154.069,17.873,152.046,18.837,150.478,20.461z"/>
	<path fill="none" stroke="#EC008C" stroke-width="1.5" stroke-miterlimit="10" d="M179.102,12.95
		c2.275-0.559,5.714-0.863,9.104-0.863c3.237,0,6.574,0.457,8.952,1.979c2.225,1.319,3.793,3.502,3.793,6.648
		c0,5.075-3.338,8.272-7.739,9.693v0.152c2.023,0.914,2.934,3.146,3.237,6.242c0.456,3.857,0.708,8.323,1.315,9.744h-7.485
		c-0.303-0.913-0.657-3.856-0.961-8.069c-0.354-4.161-1.77-5.43-4.652-5.43h-2.226l-2.529,13.499h-7.181L179.102,12.95z
		 M183.551,27.566h2.984c3.945,0,6.827-2.386,6.827-5.735c0-2.791-2.275-4.009-5.208-4.009c-1.366,0-2.226,0.102-2.833,0.254
		L183.551,27.566z"/>
	<path fill="none" stroke="#EC008C" stroke-width="1.5" stroke-miterlimit="10" d="M215.766,12.341l-6.474,34.206h-7.283
		l6.474-34.206H215.766z"/>
	<path fill="none" stroke="#EC008C" stroke-width="1.5" stroke-miterlimit="10" d="M225.424,37.666l-3.996,8.881h-7.788
		l16.588-34.206h9.357l3.995,34.206h-7.688l-0.657-8.881H225.424z M234.932,32.083l-0.708-7.358
		c-0.101-1.878-0.303-4.618-0.455-6.699h-0.102c-0.86,2.081-1.821,4.72-2.731,6.699l-3.388,7.358H234.932z"/>
</g>
<g id="Layer-jose">
	<path fill="none" stroke="#1C75BC" stroke-width="1.5" stroke-miterlimit="10" d="M16.769,12.341h7.282l-4.299,22.584
		c-1.669,8.679-5.361,12.181-13.099,12.181c-2.124,0-4.501-0.355-5.614-0.813l1.416-6.242c1.062,0.355,2.428,0.609,4.046,0.609
		c3.187,0,5.209-1.573,6.17-6.648L16.769,12.341z"/>
	<path fill="none" stroke="#1C75BC" stroke-width="1.5" stroke-miterlimit="10" d="M57.935,26.044c0,6.242-2.175,12.332-6.07,16.139
		c-3.186,3.096-7.484,4.923-12.593,4.923c-8.851,0-13.807-6.293-13.807-14.261c0-6.192,2.276-12.333,6.271-16.189
		c3.186-3.045,7.536-4.872,12.441-4.872C53.18,11.783,57.935,17.873,57.935,26.044z M37.452,20.461
		c-2.731,2.69-4.249,8.019-4.249,12.13c0,4.821,2.175,8.425,7.131,8.425c2.175,0,4.147-0.914,5.715-2.487
		c2.681-2.689,4.147-8.323,4.147-12.281c0-4.264-1.517-8.374-6.878-8.374C41.042,17.873,39.019,18.837,37.452,20.461z"/>
	<path fill="none" stroke="#1C75BC" stroke-width="1.5" stroke-miterlimit="10" d="M61.118,38.63
		c2.023,1.218,4.906,2.183,8.042,2.183c2.832,0,5.412-1.319,5.412-3.959c0-1.979-1.467-3.197-4.603-4.872
		c-3.59-1.929-7.03-4.618-7.03-9.033c0-6.953,5.968-11.114,13.402-11.114c4.147,0,6.575,0.913,8.042,1.675l-2.276,6.09
		c-1.113-0.609-3.54-1.522-6.321-1.472c-3.439,0-5.209,1.675-5.209,3.553c0,1.979,2.074,3.248,4.956,4.872
		c4.147,2.131,6.777,4.923,6.777,9.033c0,7.612-6.271,11.521-13.857,11.521c-4.754-0.051-8.143-1.269-9.761-2.437L61.118,38.63z"/>
	<path fill="none" stroke="#1C75BC" stroke-width="1.5" stroke-miterlimit="10" d="M107.594,32.032H95.506l-1.567,8.272h13.604
		l-1.213,6.242H85.442l6.474-34.206h20.179l-1.214,6.242H98.036l-1.417,7.309h12.188L107.594,32.032z M111.337,3.119l-6.676,6.395
		h-6.17l4.754-6.395H111.337z"/>
</g>
</svg>
