<?xml version="1.0" encoding="utf-8"?>
<!-- Generator: Adobe Illustrator 15.0.0, SVG Export Plug-In . SVG Version: 6.00 Build 0)  -->
<!DOCTYPE svg PUBLIC "-//W3C//DTD SVG 1.1//EN" "http://www.w3.org/Graphics/SVG/1.1/DTD/svg11.dtd">
<svg version="1.1" id="Layer_1" xmlns="http://www.w3.org/2000/svg" xmlns:xlink="http://www.w3.org/1999/xlink" x="0px" y="0px"
	 width="256px" height="256px" viewBox="0 0 256 256" enable-background="new 0 0 256 256" xml:space="preserve">
<g>
	<g>
		<path fill="#020202" d="M241.18,96.314H14.855l0.092-59.716c0.005-4.372,3.568-7.93,7.94-7.93h56.491
			c3.497,0,7.663,2.384,9.905,5.668l8.901,13.061h135.127c2.122,0,4.115,0.826,5.614,2.329c1.495,1.501,2.318,3.496,2.313,5.617
			L241.18,96.314z M22.905,88.267h210.237l0.05-32.94L93.931,55.444L82.635,38.871c-0.846-1.239-2.644-2.152-3.256-2.155H22.887
			L22.905,88.267z"/>
	</g>
	<g>
		<path fill="#020202" d="M235.107,227.332H20.896c-4.304,0-7.904-3.369-8.194-7.668L4.458,96.479
			c-0.144-2.138,0.6-4.249,2.038-5.792c1.441-1.538,3.492-2.42,5.632-2.42h231.747c2.169,0,4.165,0.859,5.625,2.418
			c1.44,1.54,2.185,3.652,2.043,5.792l-8.241,123.183C243.008,223.963,239.408,227.332,235.107,227.332z M12.513,96.314
			l8.218,122.807l3.749,0.162h210.625l8.383-122.969H12.513z"/>
	</g>
</g>
</svg>
