<?xml version="1.0" encoding="utf-8"?>
<!-- Generator: Adobe Illustrator 15.0.0, SVG Export Plug-In . SVG Version: 6.00 Build 0)  -->
<!DOCTYPE svg PUBLIC "-//W3C//DTD SVG 1.1//EN" "http://www.w3.org/Graphics/SVG/1.1/DTD/svg11.dtd">
<svg version="1.1" id="Layer_1" xmlns="http://www.w3.org/2000/svg" xmlns:xlink="http://www.w3.org/1999/xlink" x="0px" y="0px"
	 width="513.879px" height="53.857px" viewBox="0 0 513.879 53.857" enable-background="new 0 0 513.879 53.857"
	 xml:space="preserve">
<g>
	<path fill="#EFEFEF" d="M127.722,18.128c2.78-0.05,5.209,0.863,6.32,1.473l2.275-6.09c-1.467-0.763-3.896-1.676-8.042-1.676
		c-7.434,0-13.401,4.161-13.401,11.113c0,4.415,3.438,7.104,7.029,9.033c3.137,1.675,4.603,2.894,4.603,4.872
		c0,2.641-2.577,3.959-5.41,3.959c-3.137,0-6.02-0.965-8.042-2.184l-2.427,6.04c1.619,1.168,5.009,2.387,9.762,2.438
		c7.587,0,13.857-3.909,13.857-11.521c0-4.109-2.63-6.901-6.776-9.032c-2.884-1.624-4.957-2.894-4.957-4.872
		C122.513,19.803,124.282,18.128,127.722,18.128z"/>
	<path fill="#EFEFEF" d="M157.206,11.784c-4.906,0-9.256,1.826-12.441,4.871c-3.995,3.856-6.271,9.997-6.271,16.189
		c0,7.968,4.957,14.261,13.807,14.261c5.108,0,9.406-1.827,12.594-4.923c3.895-3.808,6.068-9.896,6.068-16.14
		C170.962,17.873,166.208,11.783,157.206,11.784z M159.076,38.529c-1.568,1.573-3.54,2.487-5.716,2.487
		c-4.956,0-7.131-3.604-7.131-8.426c0-4.11,1.518-9.439,4.248-12.13c1.567-1.624,3.591-2.588,5.865-2.587
		c5.36,0,6.879,4.109,6.879,8.374C163.222,30.206,161.756,35.84,159.076,38.529z"/>
	<path fill="#EFEFEF" d="M197.158,14.066c-2.379-1.521-5.716-1.979-8.952-1.979c-3.391,0-6.829,0.305-9.104,0.863l-6.372,33.595
		h7.182l2.528-13.499h2.227c2.882,0,4.298,1.27,4.651,5.431c0.305,4.213,0.658,7.155,0.961,8.068h7.485
		c-0.606-1.421-0.859-5.887-1.314-9.743c-0.304-3.097-1.215-5.328-3.237-6.242v-0.152c4.4-1.421,7.739-4.617,7.739-9.692
		C200.951,17.568,199.383,15.385,197.158,14.066z M186.535,27.566h-2.984l1.771-9.489c0.607-0.152,1.468-0.255,2.833-0.255
		c2.934,0,5.208,1.219,5.208,4.01C193.362,25.18,190.48,27.566,186.535,27.566z"/>
	<polygon fill="#EFEFEF" points="208.483,12.341 202.009,46.547 209.292,46.547 215.766,12.341 	"/>
	<path fill="#EFEFEF" d="M239.585,12.341h-9.356L213.64,46.547h7.788l3.995-8.881h9.812l0.657,8.881h7.688L239.585,12.341z
		 M227.548,32.083l3.389-7.357c0.91-1.979,1.871-4.618,2.73-6.699h0.103c0.151,2.081,0.354,4.821,0.455,6.699l0.708,7.357H227.548z"
		/>
	<path fill="#EFEFEF" d="M12.671,34.012c-0.961,5.074-2.982,6.647-6.17,6.647c-1.618,0-2.983-0.255-4.046-0.608l-1.416,6.241
		c1.112,0.458,3.489,0.813,5.613,0.813c7.738,0,11.431-3.502,13.1-12.182l4.299-22.584H16.77L12.671,34.012z"/>
	<path fill="#EFEFEF" d="M44.177,11.784c-4.905,0-9.256,1.826-12.441,4.871c-3.994,3.856-6.271,9.997-6.271,16.189
		c0,7.968,4.956,14.261,13.808,14.261c5.108,0,9.407-1.827,12.594-4.923c3.895-3.808,6.069-9.896,6.069-16.14
		C57.935,17.873,53.18,11.783,44.177,11.784z M46.049,38.529c-1.567,1.573-3.54,2.487-5.715,2.487c-4.956,0-7.131-3.604-7.131-8.426
		c0-4.11,1.519-9.439,4.249-12.13c1.566-1.624,3.59-2.588,5.865-2.587c5.361,0,6.878,4.109,6.878,8.374
		C50.196,30.206,48.73,35.84,46.049,38.529z"/>
	<path fill="#EFEFEF" d="M75.786,18.128c2.78-0.05,5.208,0.863,6.32,1.473l2.275-6.09c-1.467-0.763-3.896-1.676-8.042-1.676
		c-7.435,0-13.401,4.161-13.401,11.113c0,4.415,3.439,7.104,7.03,9.033c3.136,1.675,4.603,2.894,4.603,4.872
		c0,2.641-2.579,3.959-5.411,3.959c-3.137,0-6.02-0.965-8.042-2.184l-2.427,6.04c1.618,1.168,5.008,2.387,9.762,2.438
		c7.586,0,13.856-3.909,13.856-11.521c0-4.109-2.63-6.901-6.776-9.032c-2.883-1.624-4.956-2.894-4.956-4.872
		C70.577,19.803,72.347,18.128,75.786,18.128z"/>
	<polygon fill="#EFEFEF" points="111.337,3.119 103.245,3.119 98.491,9.514 104.661,9.514 	"/>
	<polygon fill="#EFEFEF" points="98.036,18.582 110.881,18.582 112.095,12.34 91.916,12.34 85.442,46.546 106.33,46.546 
		107.543,40.304 93.939,40.304 95.506,32.031 107.594,32.031 108.807,25.891 96.619,25.891 	"/>
</g>
</svg>
