<?xml version="1.0" encoding="utf-8"?>
<!-- Generator: Adobe Illustrator 15.0.0, SVG Export Plug-In . SVG Version: 6.00 Build 0)  -->
<!DOCTYPE svg PUBLIC "-//W3C//DTD SVG 1.1//EN" "http://www.w3.org/Graphics/SVG/1.1/DTD/svg11.dtd">
<svg version="1.1" id="Layer_1" xmlns="http://www.w3.org/2000/svg" xmlns:xlink="http://www.w3.org/1999/xlink" x="0px" y="0px"
	 width="513.879px" height="53.857px" viewBox="0 0 513.879 53.857" enable-background="new 0 0 513.879 53.857"
	 xml:space="preserve">
<g>
	<path d="M127.722,18.128c2.78-0.05,5.209,0.863,6.32,1.472l2.276-6.09c-1.467-0.762-3.896-1.675-8.042-1.675
		c-7.434,0-13.402,4.161-13.402,11.113c0,4.415,3.439,7.104,7.03,9.033c3.136,1.675,4.602,2.894,4.602,4.872
		c0,2.641-2.577,3.959-5.41,3.959c-3.137,0-6.02-0.965-8.042-2.183l-2.427,6.04c1.619,1.168,5.009,2.386,9.762,2.437
		c7.587,0,13.857-3.909,13.857-11.521c0-4.11-2.63-6.902-6.776-9.033c-2.884-1.624-4.957-2.893-4.957-4.872
		C122.513,19.803,124.282,18.128,127.722,18.128z"/>
	<path d="M157.206,11.784c-4.906,0-9.256,1.826-12.441,4.871c-3.995,3.856-6.271,9.997-6.271,16.189
		c0,7.968,4.957,14.261,13.807,14.261c5.108,0,9.406-1.827,12.594-4.923c3.894-3.807,6.068-9.896,6.068-16.139
		C170.962,17.873,166.208,11.783,157.206,11.784z M159.076,38.529c-1.568,1.573-3.54,2.487-5.715,2.487
		c-4.956,0-7.131-3.604-7.131-8.425c0-4.111,1.517-9.44,4.248-12.13c1.567-1.624,3.591-2.588,5.865-2.587
		c5.36,0,6.879,4.109,6.879,8.374C163.222,30.206,161.756,35.84,159.076,38.529z"/>
	<path d="M197.158,14.066c-2.378-1.521-5.715-1.979-8.952-1.979c-3.39,0-6.829,0.304-9.104,0.863l-6.372,33.595h7.181l2.529-13.499
		h2.226c2.882,0,4.298,1.269,4.652,5.43c0.304,4.213,0.658,7.156,0.961,8.069h7.485c-0.607-1.421-0.859-5.887-1.315-9.744
		c-0.303-3.096-1.214-5.328-3.237-6.242v-0.152c4.401-1.421,7.739-4.617,7.739-9.692C200.951,17.568,199.383,15.385,197.158,14.066z
		 M186.535,27.566h-2.984l1.771-9.489c0.607-0.152,1.467-0.255,2.833-0.255c2.933,0,5.208,1.219,5.208,4.01
		C193.362,25.18,190.48,27.566,186.535,27.566z"/>
	<polygon points="208.483,12.341 202.009,46.547 209.292,46.547 215.766,12.341 	"/>
	<path d="M239.585,12.341h-9.356L213.64,46.547h7.788l3.995-8.881h9.812l0.657,8.881h7.688L239.585,12.341z M227.548,32.083
		l3.389-7.358c0.91-1.979,1.871-4.618,2.73-6.699h0.103c0.151,2.081,0.354,4.821,0.455,6.699l0.708,7.358H227.548z"/>
	<path d="M12.671,34.012c-0.961,5.075-2.982,6.648-6.17,6.648c-1.618,0-2.983-0.255-4.046-0.609l-1.416,6.242
		c1.113,0.458,3.49,0.813,5.614,0.813c7.738,0,11.43-3.502,13.099-12.181l4.299-22.584h-7.281L12.671,34.012z"/>
	<path d="M44.177,11.784c-4.905,0-9.256,1.826-12.441,4.871c-3.995,3.856-6.271,9.997-6.271,16.189
		c0,7.968,4.956,14.261,13.808,14.261c5.108,0,9.407-1.827,12.593-4.923c3.895-3.807,6.07-9.896,6.07-16.139
		C57.935,17.873,53.18,11.783,44.177,11.784z M46.049,38.529c-1.567,1.573-3.54,2.487-5.715,2.487c-4.956,0-7.131-3.604-7.131-8.425
		c0-4.111,1.519-9.44,4.249-12.13c1.567-1.624,3.59-2.588,5.866-2.587c5.361,0,6.878,4.109,6.878,8.374
		C50.196,30.206,48.73,35.84,46.049,38.529z"/>
	<path d="M75.786,18.128c2.781-0.05,5.208,0.863,6.321,1.472l2.275-6.09c-1.467-0.762-3.895-1.675-8.042-1.675
		c-7.434,0-13.401,4.161-13.401,11.113c0,4.415,3.439,7.104,7.03,9.033c3.136,1.675,4.603,2.894,4.603,4.872
		c0,2.641-2.58,3.959-5.412,3.959c-3.136,0-6.019-0.965-8.042-2.183l-2.426,6.04c1.618,1.168,5.007,2.386,9.761,2.437
		c7.586,0,13.857-3.909,13.857-11.521c0-4.11-2.63-6.902-6.777-9.033c-2.882-1.624-4.956-2.893-4.956-4.872
		C70.577,19.803,72.347,18.128,75.786,18.128z"/>
	<polygon points="111.337,3.119 103.245,3.119 98.491,9.514 104.661,9.514 	"/>
	<polygon points="98.036,18.582 110.881,18.582 112.095,12.34 91.916,12.34 85.442,46.546 106.33,46.546 107.543,40.304 
		93.939,40.304 95.506,32.031 107.594,32.031 108.807,25.891 96.619,25.891 	"/>
</g>
</svg>
