<?xml version="1.0" encoding="utf-8"?>
<!-- Generator: Adobe Illustrator 16.0.0, SVG Export Plug-In . SVG Version: 6.00 Build 0)  -->
<!DOCTYPE svg PUBLIC "-//W3C//DTD SVG 1.1//EN" "http://www.w3.org/Graphics/SVG/1.1/DTD/svg11.dtd">
<svg version="1.1" id="play" xmlns="http://www.w3.org/2000/svg" xmlns:xlink="http://www.w3.org/1999/xlink" x="0px" y="0px"
	 width="256px" height="256px" viewBox="0 0 256 256" enable-background="new 0 0 256 256" xml:space="preserve">
<g>
	<polygon fill="#F1F2F2" points="102.305,170.043 169.68,128.001 102.305,85.956 	"/>
	<g>
		<path fill="#F1F2F2" d="M128.001,237.912c-60.605,0-109.912-49.307-109.912-109.912c0-60.606,49.307-109.912,109.912-109.912
			c60.604,0,109.91,49.306,109.91,109.912C237.911,188.605,188.605,237.912,128.001,237.912z M128.001,24.088
			C70.704,24.088,24.089,70.703,24.089,128c0,57.296,46.615,103.912,103.912,103.912c57.296,0,103.91-46.615,103.91-103.912
			C231.911,70.703,185.297,24.088,128.001,24.088z"/>
	</g>
</g>
</svg>
